<svg xmlns:svg="http://www.w3.org/2000/svg" xmlns="http://www.w3.org/2000/svg" version="1.2" width="24" height="24" viewBox="0 0 24 24" id="svg2"><metadata id="metadata10"/><defs id="defs8"/><path d="m19.78 13.81-2.88 0 0-2.88c0-0.8-0.65-1.44-1.44-1.44-0.8 0-1.44 0.65-1.44 1.44l0.05 2.88-2.93 0c-0.8 0-1.44 0.65-1.44 1.44 0 0.8 0.65 1.44 1.44 1.44l2.93-0.05-0.05 2.93c0 0.8 0.65 1.44 1.44 1.44 0.8 0 1.44-0.65 1.44-1.44l0-2.93 2.88 0.05c0.8 0 1.44-0.65 1.44-1.44 0-0.8-0.65-1.44-1.44-1.44z" id="path4" fill="#fff"/><rect id="rect4138" width="14.94" height="14.94" x="4.53" y="4.53" ry="2.18" style="fill:none;stroke-linecap:round;stroke-linejoin:round;stroke-miterlimit:0;stroke-width:1.06;stroke:#fff"/><path d="M4.86 5.02L4.86 7 19.12 7 19.12 5.02 4.86 5.02zM14.5 5.1A0.5 0.5 0 0 1 15 5.6 0.5 0.5 0 0 1 14.5 6.1 0.5 0.5 0 0 1 14 5.6 0.5 0.5 0 0 1 14.5 5.1zM16 5.1A0.5 0.5 0 0 1 16.5 5.6 0.5 0.5 0 0 1 16 6.1 0.5 0.5 0 0 1 15.5 5.6 0.5 0.5 0 0 1 16 5.1zM17.5 5.1A0.5 0.5 0 0 1 18 5.6 0.5 0.5 0 0 1 17.5 6.1 0.5 0.5 0 0 1 17 5.6 0.5 0.5 0 0 1 17.5 5.1z" id="rect4140" fill="#fff"/></svg>