<svg xmlns:svg="http://www.w3.org/2000/svg" xmlns="http://www.w3.org/2000/svg" version="1.2" width="24" height="24" viewBox="2 2 20 20" id="svg2"><metadata id="metadata10"/><defs id="defs8"/><path d="M7.37 1.2C5.67 1.2 4.29 2.58 4.29 4.29L4.29 19.71C4.29 21.42 5.67 22.8 7.37 22.8 8.21 22.8 8.97 22.46 9.53 21.93 13.6 17.95 19.71 12 19.71 12 19.71 12 13.6 6.05 9.53 2.07 8.97 1.54 8.21 1.2 7.37 1.2zM13.03 6.7C13.19 6.7 13.35 6.76 13.47 6.88L15.78 9.19 13.47 11.51C13.35 11.63 13.19 11.69 13.03 11.69 12.87 11.69 12.71 11.63 12.59 11.51 12.35 11.26 12.35 10.87 12.59 10.62L13.39 9.82 12.25 9.82C11.38 9.82 10.32 10.72 9.97 11.76L9.68 12.64C9.15 14.23 7.88 15.43 6.74 15.43L5.18 15.43C4.83 15.43 4.56 15.15 4.56 14.81 4.56 14.46 4.83 14.18 5.18 14.18L6.74 14.18C7.2 14.18 8.09 13.45 8.49 12.24L8.79 11.36C9.31 9.8 10.83 8.57 12.25 8.57L13.39 8.57 12.59 7.76C12.35 7.52 12.35 7.12 12.59 6.88 12.71 6.76 12.87 6.7 13.03 6.7zM5.18 8.57L7.36 8.57C8.1 8.57 8.76 8.89 9.26 9.4 8.97 9.72 8.72 10.06 8.52 10.44 8.23 10.06 7.82 9.82 7.36 9.82L5.18 9.82C4.83 9.82 4.56 9.54 4.56 9.19 4.56 8.85 4.83 8.57 5.18 8.57zM13.03 12.31C13.19 12.31 13.35 12.37 13.47 12.49L15.78 14.81 13.47 17.12C13.35 17.24 13.19 17.3 13.03 17.3 12.87 17.3 12.71 17.24 12.59 17.12 12.35 16.88 12.35 16.48 12.59 16.24L13.39 15.43 11.94 15.43C10.98 15.43 10.13 14.96 9.58 14.23 9.87 13.8 10.1 13.34 10.26 12.87 10.48 13.63 11.15 14.18 11.94 14.18L13.39 14.18 12.59 13.38C12.35 13.13 12.35 12.74 12.59 12.49 12.71 12.37 12.87 12.31 13.03 12.31z" transform="matrix(0.8333333,0,0,0.8333333,2,2)" id="path4-3" fill="#fff"/></svg>